<?xml version="1.0" standalone="no"?>
<!DOCTYPE svg PUBLIC "-//W3C//DTD SVG 20010904//EN"
 "http://www.w3.org/TR/2001/REC-SVG-20010904/DTD/svg10.dtd">
<svg version="1.0" xmlns="http://www.w3.org/2000/svg"
 width="512.000000pt" height="512.000000pt" viewBox="0 0 512.000000 512.000000"
 preserveAspectRatio="xMidYMid meet">
<metadata>
Created by potrace 1.11, written by Peter Selinger 2001-2013
</metadata>
<g transform="translate(0.000000,512.000000) scale(0.100000,-0.100000)"
fill="#000000" stroke="none">
<path d="M3953 5095 c-51 -15 -143 -66 -198 -109 -172 -132 -1095 -1043 -1298
-1279 -151 -177 -178 -218 -329 -493 -64 -115 -187 -331 -274 -480 -262 -447
-333 -573 -399 -704 -223 -444 -279 -774 -171 -1002 14 -30 50 -84 80 -122 30
-38 57 -79 61 -93 3 -13 -4 -80 -15 -149 -34 -210 -23 -329 42 -461 35 -73
118 -155 173 -173 46 -15 97 1 125 40 28 39 26 53 -22 150 l-43 85 0 115 c0
111 1 116 30 160 45 67 97 98 190 115 165 29 238 68 355 185 129 130 231 319
288 530 32 123 37 312 8 405 -48 160 -139 265 -312 358 -137 74 -143 121 -34
265 79 105 164 183 352 325 190 143 315 265 432 421 60 79 258 404 617 1009
476 803 527 893 512 905 -22 16 -116 14 -170 -3z m-1748 -2223 c17 -10 40 -38
53 -64 32 -64 24 -116 -28 -171 -34 -37 -42 -41 -96 -44 -47 -3 -66 0 -92 16
-110 70 -90 235 33 279 36 13 89 7 130 -16z m-105 -978 c131 -59 188 -178 160
-334 -36 -199 -161 -434 -271 -507 -136 -90 -343 -33 -415 113 -25 51 -26 61
-22 157 5 84 12 119 41 199 80 221 196 368 314 398 56 14 126 4 193 -26z"/>
<path d="M4245 3581 l-830 -147 -38 -69 c-135 -247 -361 -518 -532 -637 -81
-57 -153 -123 -144 -133 9 -8 303 70 464 123 279 93 661 243 1055 414 276 121
668 305 723 340 81 52 144 141 160 226 5 26 3 32 -11 31 -9 0 -390 -67 -847
-148z"/>
<path d="M588 3665 c-341 -65 -535 -263 -555 -570 -12 -191 40 -341 160 -459
140 -139 335 -204 672 -222 126 -6 401 8 496 27 63 12 38 -21 225 297 63 105
114 194 114 197 0 3 -13 5 -28 5 -55 0 -64 17 -74 138 -13 174 -60 292 -157
391 -83 86 -203 149 -352 187 -91 23 -398 28 -501 9z m447 -318 c116 -33 187
-84 224 -161 24 -49 29 -172 9 -237 -25 -86 -116 -154 -244 -185 -94 -23 -324
-23 -417 0 -126 30 -207 88 -245 175 -23 55 -21 185 5 241 47 104 129 151 323
184 50 9 296 -4 345 -17z"/>
</g>
</svg>
